<svg xmlns="http://www.w3.org/2000/svg" version="1.1" xmlns:xlink="http://www.w3.org/1999/xlink" xmlns:svgjs="http://svgjs.dev/svgjs" width="1500" height="791" viewBox="0 0 1500 791"><g transform="matrix(1,0,0,1,-0.9090909090909918,2.2490574943076354)"><svg viewBox="0 0 396 209" data-background-color="#ffffff" preserveAspectRatio="xMidYMid meet" height="791" width="1500" xmlns="http://www.w3.org/2000/svg" xmlns:xlink="http://www.w3.org/1999/xlink"><g id="tight-bounds" transform="matrix(1,0,0,1,0.2400000000000091,0.044925471640425485)"><svg viewBox="0 0 395.52 208.91014905671915" height="208.91014905671915" width="395.52"><g><svg viewBox="0 0 395.52 208.91014905671915" height="208.91014905671915" width="395.52"><g transform="matrix(1,0,0,1,0,129.1148531765693)"><svg viewBox="0 0 395.52 79.79529588014982" height="79.79529588014982" width="395.52"><g id="textblocktransform"><svg viewBox="0 0 395.52 79.79529588014982" height="79.79529588014982" width="395.52" id="textblock"><g><svg viewBox="0 0 395.52 79.79529588014982" height="79.79529588014982" width="395.52"><g transform="matrix(1,0,0,1,0,0)"><svg width="395.52" viewBox="2 -39.65 200.23 40.4" height="79.79529588014982" data-palette-color="#000000"><path d="M29.05-34.55L31.25 0 25.2 0 24.6-14.6Q24.3-22.6 24.3-26L24.3-26 24.35-28.6 19.6-3.8 13.6-3.8 8.65-28.65Q8.7-27.15 8.7-24.05L8.7-24.05Q8.7-18.8 8.5-14.4L8.5-14.4 7.95 0 2 0 4.2-34.55 12.2-34.55 16.7-10.2 20.9-34.55 29.05-34.55ZM54.9-13.85Q54.9-13.4 54.75-11.3L54.75-11.3 41.1-11.3Q41.3-7.2 42.52-5.58 43.75-3.95 46-3.95L46-3.95Q47.55-3.95 48.8-4.48 50.05-5 51.5-6.15L51.5-6.15 54.05-2.65Q50.55 0.75 45.65 0.75L45.65 0.75Q40.45 0.75 37.67-2.85 34.9-6.45 34.9-13L34.9-13Q34.9-19.55 37.55-23.35 40.2-27.15 45.05-27.15L45.05-27.15Q49.7-27.15 52.3-23.78 54.9-20.4 54.9-13.85L54.9-13.85ZM48.9-15.3L48.9-15.65Q48.9-19.4 48-21.13 47.1-22.85 45.1-22.85L45.1-22.85Q43.25-22.85 42.27-21.18 41.3-19.5 41.1-15.3L41.1-15.3 48.9-15.3ZM76.1-6.4Q76.1-5.1 76.45-4.48 76.8-3.85 77.6-3.45L77.6-3.45 76.35 0.65Q74.3 0.4 73.07-0.45 71.85-1.3 71.25-3.05L71.25-3.05Q68.95 0.75 64.8 0.75L64.8 0.75Q61.5 0.75 59.55-1.48 57.6-3.7 57.6-7.4L57.6-7.4Q57.6-11.7 60.27-13.95 62.95-16.2 68.05-16.2L68.05-16.2 70.1-16.2 70.1-18.05Q70.1-20.55 69.22-21.58 68.35-22.6 66.4-22.6L66.4-22.6Q64.05-22.6 60.55-21.3L60.55-21.3 59.15-25.3Q61.15-26.2 63.3-26.68 65.45-27.15 67.4-27.15L67.4-27.15Q76.1-27.15 76.1-18.35L76.1-18.35 76.1-6.4ZM66.45-3.7Q68.85-3.7 70.1-7L70.1-7 70.1-12.55 68.65-12.55Q66.1-12.55 64.92-11.4 63.75-10.25 63.75-7.85L63.75-7.85Q63.75-5.8 64.45-4.75 65.15-3.7 66.45-3.7L66.45-3.7ZM87.49 0.75Q84.79 0.75 83.22-0.93 81.64-2.6 81.64-5.4L81.64-5.4 81.64-37.05 87.79-37.7 87.79-5.65Q87.79-5 88.09-4.6 88.39-4.2 88.99-4.2L88.99-4.2Q89.34-4.2 89.67-4.3 89.99-4.4 90.09-4.4L90.09-4.4 91.29-0.2Q89.59 0.75 87.49 0.75L87.49 0.75ZM94.34-26.45L100.49-26.45 100.49 0 94.34 0 94.34-26.45ZM97.39-39.65Q99.04-39.65 100.07-38.6 101.09-37.55 101.09-35.9L101.09-35.9Q101.09-34.3 100.07-33.25 99.04-32.2 97.39-32.2L97.39-32.2Q95.74-32.2 94.72-33.25 93.69-34.3 93.69-35.9L93.69-35.9Q93.69-37.55 94.72-38.6 95.74-39.65 97.39-39.65L97.39-39.65ZM115.69-27.15Q117.84-27.15 119.59-26.43 121.34-25.7 122.94-24.15L122.94-24.15 120.29-20.65Q119.19-21.55 118.21-21.98 117.24-22.4 116.09-22.4L116.09-22.4Q113.84-22.4 112.69-20.28 111.54-18.15 111.54-13.1L111.54-13.1Q111.54-8.2 112.71-6.2 113.89-4.2 116.09-4.2L116.09-4.2Q117.19-4.2 118.09-4.6 118.99-5 120.19-5.85L120.19-5.85 122.94-2.3Q119.74 0.75 115.79 0.75L115.79 0.75Q110.69 0.75 107.86-2.73 105.04-6.2 105.04-13L105.04-13Q105.04-17.4 106.34-20.6 107.64-23.8 110.06-25.48 112.49-27.15 115.69-27.15L115.69-27.15ZM125.99-26.45L132.14-26.45 132.14 0 125.99 0 125.99-26.45ZM129.04-39.65Q130.69-39.65 131.71-38.6 132.74-37.55 132.74-35.9L132.74-35.9Q132.74-34.3 131.71-33.25 130.69-32.2 129.04-32.2L129.04-32.2Q127.39-32.2 126.36-33.25 125.34-34.3 125.34-35.9L125.34-35.9Q125.34-37.55 126.36-38.6 127.39-39.65 129.04-39.65L129.04-39.65ZM147.23-27.15Q152.23-27.15 155.01-23.65 157.78-20.15 157.78-13.25L157.78-13.25Q157.78-6.65 154.98-2.95 152.18 0.75 147.23 0.75L147.23 0.75Q142.28 0.75 139.48-2.88 136.68-6.5 136.68-13.25L136.68-13.25Q136.68-19.95 139.48-23.55 142.28-27.15 147.23-27.15L147.23-27.15ZM147.23-22.5Q145.08-22.5 144.08-20.38 143.08-18.25 143.08-13.25L143.08-13.25Q143.08-8.2 144.08-6.08 145.08-3.95 147.23-3.95L147.23-3.95Q149.38-3.95 150.38-6.08 151.38-8.2 151.38-13.25L151.38-13.25Q151.38-18.3 150.38-20.4 149.38-22.5 147.23-22.5L147.23-22.5ZM180.48-26.45L180.48 0 175.13 0 174.83-3.35Q173.58-1.3 172.03-0.28 170.48 0.75 168.43 0.75L168.43 0.75Q165.53 0.75 163.86-1.3 162.18-3.35 162.18-6.65L162.18-6.65 162.18-26.45 168.33-26.45 168.33-7Q168.33-3.9 170.43-3.9L170.43-3.9Q171.63-3.9 172.58-4.83 173.53-5.75 174.33-7.45L174.33-7.45 174.33-26.45 180.48-26.45ZM193.53-27.15Q198.23-27.15 201.48-24.05L201.48-24.05 199.13-20.7Q197.73-21.7 196.48-22.2 195.23-22.7 193.93-22.7L193.93-22.7Q192.48-22.7 191.65-21.93 190.83-21.15 190.83-19.8L190.83-19.8Q190.83-18.45 191.75-17.63 192.68-16.8 195.48-15.7L195.48-15.7Q198.93-14.35 200.58-12.5 202.23-10.65 202.23-7.55L202.23-7.55Q202.23-3.7 199.53-1.48 196.83 0.75 192.68 0.75L192.68 0.75Q189.98 0.75 187.7-0.23 185.43-1.2 183.73-2.95L183.73-2.95 186.73-6.25Q189.53-3.8 192.43-3.8L192.43-3.8Q194.08-3.8 195.03-4.67 195.98-5.55 195.98-7.1L195.98-7.1Q195.98-8.25 195.58-8.97 195.18-9.7 194.18-10.33 193.18-10.95 191.18-11.7L191.18-11.7Q187.73-13.05 186.25-14.85 184.78-16.65 184.78-19.45L184.78-19.45Q184.78-22.8 187.15-24.98 189.53-27.15 193.53-27.15L193.53-27.15Z" opacity="1" transform="matrix(1,0,0,1,0,0)" fill="#000000" class="wordmark-text-0" data-fill-palette-color="primary" id="text-0"></path></svg></g></svg></g></svg></g></svg></g><g transform="matrix(1,0,0,1,120.041951352184,0)"><svg viewBox="0 0 155.43609729563198 110.27709890636706" height="110.27709890636706" width="155.43609729563198"><g><svg xmlns="http://www.w3.org/2000/svg" xmlns:xlink="http://www.w3.org/1999/xlink" version="1.1" x="0" y="0" viewBox="4.549 17.75356439496041 90.90100003485793 64.49144533310026" enable-background="new 0 0 100 100" xml:space="preserve" height="110.27709890636706" width="155.43609729563198" class="icon-icon-0" data-fill-palette-color="accent" id="icon-0"><g fill="#000000" data-fill-palette-color="accent"><path d="M52.307 77.863C37.711 77.863 25.838 65.993 25.838 51.4 25.838 36.804 37.711 24.931 52.307 24.931S78.771 36.805 78.771 51.4C78.771 65.993 66.902 77.863 52.307 77.863M52.307 27.521C39.143 27.521 28.428 38.234 28.428 51.4 28.428 64.564 39.143 75.273 52.307 75.273 65.47 75.273 76.181 64.564 76.181 51.4 76.181 38.234 65.47 27.521 52.307 27.521" fill="#000000" data-fill-palette-color="accent"></path></g><g fill="#000000" data-fill-palette-color="accent"><path d="M52.307 71.96C40.97 71.96 31.743 62.737 31.743 51.4S40.971 30.837 52.307 30.837C63.645 30.837 72.867 40.063 72.867 51.4 72.866 62.737 63.645 71.96 52.307 71.96M52.307 33.428C42.396 33.428 34.332 41.489 34.332 51.4 34.332 61.308 42.395 69.37 52.307 69.37 62.217 69.37 70.277 61.308 70.277 51.4 70.276 41.489 62.217 33.428 52.307 33.428" fill="#000000" data-fill-palette-color="accent"></path></g><g fill="#000000" data-fill-palette-color="accent"><path d="M94.154 82.245H89.242A1.296 1.296 0 0 1 87.947 80.951V60.282H84.841A1.293 1.293 0 0 1 83.546 58.986V31.255C83.587 30.736 84.579 21.423 93.685 17.846A1.295 1.295 0 0 1 95.45 19.053V80.951C95.45 81.666 94.873 82.245 94.154 82.245M90.538 79.655H92.859V21.102C86.889 24.497 86.161 31.079 86.13 31.382L86.136 57.692H89.241C89.96 57.692 90.537 58.271 90.537 58.987z" fill="#000000" data-fill-palette-color="accent"></path></g><g fill="#000000" data-fill-palette-color="accent"><path d="M14.065 46.744C8.819 46.744 4.549 42.474 4.549 37.228V24.152C4.549 23.437 5.13 22.857 5.844 22.857H22.284C23.003 22.857 23.58 23.437 23.58 24.152V37.228C23.581 42.474 19.312 46.744 14.065 46.744M7.14 25.448V37.228A6.93 6.93 0 0 0 14.066 44.153 6.933 6.933 0 0 0 20.991 37.228V25.448z" fill="#000000" data-fill-palette-color="accent"></path></g><g fill="#000000" data-fill-palette-color="accent"><path d="M11.277 39.646A1.29 1.29 0 0 1 9.982 38.351V24.152A1.296 1.296 0 0 1 12.572 24.152V38.351C12.572 39.066 11.991 39.646 11.277 39.646" fill="#000000" data-fill-palette-color="accent"></path></g><g fill="#000000" data-fill-palette-color="accent"><path d="M16.853 39.646A1.295 1.295 0 0 1 15.558 38.351V24.152A1.296 1.296 0 0 1 18.148 24.152V38.351A1.294 1.294 0 0 1 16.853 39.646" fill="#000000" data-fill-palette-color="accent"></path></g><g fill="#000000" data-fill-palette-color="accent"><path d="M94.154 64.177H89.242A1.296 1.296 0 0 1 87.947 62.881V58.986C87.947 58.27 88.529 57.691 89.242 57.691H94.154C94.873 57.691 95.45 58.27 95.45 58.986V62.881C95.45 63.598 94.873 64.177 94.154 64.177M90.538 61.587H92.859V60.282H90.538z" fill="#000000" data-fill-palette-color="accent"></path></g><g fill="#000000" data-fill-palette-color="accent"><path d="M18.669 82.245H9.37A1.29 1.29 0 0 1 8.075 80.951V59.697C8.075 58.981 8.652 58.402 9.37 58.402H18.669C19.387 58.402 19.964 58.981 19.964 59.697V80.951C19.964 81.666 19.387 82.245 18.669 82.245M10.665 79.655H17.373V60.992H10.665z" fill="#000000" data-fill-palette-color="accent"></path></g><g fill="#000000" data-fill-palette-color="accent"><path d="M16.519 60.992H11.612A1.29 1.29 0 0 1 10.317 59.697V45.449C10.317 45.095 10.459 44.755 10.716 44.512 10.974 44.267 11.359 44.085 11.667 44.156L16.579 44.381A1.29 1.29 0 0 1 17.813 45.673V59.697C17.813 60.413 17.237 60.992 16.519 60.992M12.906 58.402H15.223V46.911L12.906 46.805z" fill="#000000" data-fill-palette-color="accent"></path></g><g fill="#000000" data-fill-palette-color="accent"><path d="M77.476 33.428C77.081 33.428 76.692 33.248 76.439 32.907 71.916 26.854 65.683 23.745 61.251 22.205A1.3 1.3 0 0 1 60.451 20.556 1.304 1.304 0 0 1 62.1 19.757C66.876 21.418 73.594 24.778 78.512 31.36 78.942 31.932 78.825 32.744 78.249 33.171 78.021 33.345 77.749 33.428 77.476 33.428" fill="#000000" data-fill-palette-color="accent"></path></g><g fill="#000000" data-fill-palette-color="accent"><path d="M57.184 20.998C57.092 20.998 57.001 20.987 56.906 20.968 54.579 20.452 53.041 20.345 53.025 20.345A1.3 1.3 0 0 1 51.816 18.966C51.867 18.253 52.535 17.692 53.192 17.759 53.263 17.764 54.927 17.876 57.467 18.437A1.29 1.29 0 0 1 58.448 19.982 1.295 1.295 0 0 1 57.184 20.998" fill="#000000" data-fill-palette-color="accent"></path></g></svg></g></svg></g><g></g></svg></g><defs></defs></svg><rect width="395.52" height="208.91014905671915" fill="none" stroke="none" visibility="hidden"></rect></g></svg></g></svg>